<svg width="108" height="70" viewBox="0 0 108 70" fill="none" xmlns="http://www.w3.org/2000/svg">
<path d="M48.8276 28.9816C47.4128 29.824 43.7034 31.5441 45.9627 33.6966C47.0663 34.748 48.2955 35.5 49.8409 35.5H58.6591C60.2045 35.5 61.4337 34.748 62.5373 33.6966C64.7966 31.5441 61.0872 29.824 59.6724 28.9816C56.3548 27.0061 52.1452 27.0061 48.8276 28.9816Z" stroke="#9B9B9B" stroke-width="1.5" stroke-linecap="round" stroke-linejoin="round"/>
<path d="M58.75 20C58.75 22.4853 56.7353 24.5 54.25 24.5C51.7647 24.5 49.75 22.4853 49.75 20C49.75 17.5147 51.7647 15.5 54.25 15.5C56.7353 15.5 58.75 17.5147 58.75 20Z" stroke="#9B9B9B" stroke-width="1.5"/>
<path d="M31.946 53.5H30.5483L33.6889 44.7727H35.2102L38.3509 53.5H36.9531L34.4858 46.358H34.4176L31.946 53.5ZM32.1804 50.0824H36.7145V51.1903H32.1804V50.0824ZM42.1605 53.6321C41.527 53.6321 40.9815 53.4886 40.5241 53.2017C40.0696 52.9119 39.7202 52.5128 39.4759 52.0043C39.2315 51.4957 39.1094 50.9134 39.1094 50.2571C39.1094 49.5923 39.2344 49.0057 39.4844 48.4972C39.7344 47.9858 40.0866 47.5866 40.5412 47.2997C40.9957 47.0128 41.5313 46.8693 42.1477 46.8693C42.6449 46.8693 43.0881 46.9616 43.4773 47.1463C43.8665 47.3281 44.1804 47.5838 44.419 47.9134C44.6605 48.2429 44.804 48.6278 44.8494 49.0682H43.6094C43.5412 48.7614 43.3849 48.4972 43.1406 48.2756C42.8991 48.054 42.5753 47.9432 42.169 47.9432C41.8139 47.9432 41.5028 48.0369 41.2358 48.2244C40.9716 48.4091 40.7656 48.6733 40.6179 49.017C40.4702 49.358 40.3963 49.7614 40.3963 50.2273C40.3963 50.7045 40.4688 51.1165 40.6136 51.4631C40.7585 51.8097 40.9631 52.0781 41.2273 52.2685C41.4943 52.4588 41.8082 52.554 42.169 52.554C42.4105 52.554 42.6293 52.5099 42.8253 52.4219C43.0241 52.331 43.1903 52.2017 43.3239 52.0341C43.4602 51.8665 43.5554 51.6648 43.6094 51.429H44.8494C44.804 51.8523 44.6662 52.2301 44.4361 52.5625C44.206 52.8949 43.8977 53.1562 43.5114 53.3466C43.1278 53.5369 42.6776 53.6321 42.1605 53.6321ZM48.9691 53.6321C48.3356 53.6321 47.7901 53.4886 47.3327 53.2017C46.8782 52.9119 46.5288 52.5128 46.2844 52.0043C46.0401 51.4957 45.918 50.9134 45.918 50.2571C45.918 49.5923 46.043 49.0057 46.293 48.4972C46.543 47.9858 46.8952 47.5866 47.3498 47.2997C47.8043 47.0128 48.3398 46.8693 48.9563 46.8693C49.4535 46.8693 49.8967 46.9616 50.2859 47.1463C50.6751 47.3281 50.989 47.5838 51.2276 47.9134C51.4691 48.2429 51.6126 48.6278 51.658 49.0682H50.418C50.3498 48.7614 50.1935 48.4972 49.9492 48.2756C49.7077 48.054 49.3839 47.9432 48.9776 47.9432C48.6225 47.9432 48.3114 48.0369 48.0444 48.2244C47.7802 48.4091 47.5742 48.6733 47.4265 49.017C47.2788 49.358 47.2049 49.7614 47.2049 50.2273C47.2049 50.7045 47.2773 51.1165 47.4222 51.4631C47.5671 51.8097 47.7717 52.0781 48.0359 52.2685C48.3029 52.4588 48.6168 52.554 48.9776 52.554C49.2191 52.554 49.4379 52.5099 49.6339 52.4219C49.8327 52.331 49.9989 52.2017 50.1325 52.0341C50.2688 51.8665 50.364 51.6648 50.418 51.429H51.658C51.6126 51.8523 51.4748 52.2301 51.2447 52.5625C51.0146 52.8949 50.7063 53.1562 50.32 53.3466C49.9364 53.5369 49.4862 53.6321 48.9691 53.6321ZM55.7777 53.6321C55.1641 53.6321 54.6286 53.4915 54.1712 53.2102C53.7138 52.929 53.3587 52.5355 53.1058 52.0298C52.853 51.5241 52.7266 50.9332 52.7266 50.2571C52.7266 49.5781 52.853 48.9844 53.1058 48.4759C53.3587 47.9673 53.7138 47.5724 54.1712 47.2912C54.6286 47.0099 55.1641 46.8693 55.7777 46.8693C56.3913 46.8693 56.9268 47.0099 57.3842 47.2912C57.8416 47.5724 58.1967 47.9673 58.4496 48.4759C58.7024 48.9844 58.8288 49.5781 58.8288 50.2571C58.8288 50.9332 58.7024 51.5241 58.4496 52.0298C58.1967 52.5355 57.8416 52.929 57.3842 53.2102C56.9268 53.4915 56.3913 53.6321 55.7777 53.6321ZM55.782 52.5625C56.1797 52.5625 56.5092 52.4574 56.7706 52.2472C57.032 52.0369 57.2251 51.7571 57.3501 51.4077C57.478 51.0582 57.5419 50.6733 57.5419 50.2528C57.5419 49.8352 57.478 49.4517 57.3501 49.1023C57.2251 48.75 57.032 48.4673 56.7706 48.2543C56.5092 48.0412 56.1797 47.9347 55.782 47.9347C55.3814 47.9347 55.049 48.0412 54.7848 48.2543C54.5234 48.4673 54.3288 48.75 54.201 49.1023C54.076 49.4517 54.0135 49.8352 54.0135 50.2528C54.0135 50.6733 54.076 51.0582 54.201 51.4077C54.3288 51.7571 54.5234 52.0369 54.7848 52.2472C55.049 52.4574 55.3814 52.5625 55.782 52.5625ZM64.3974 50.7855V46.9545H65.6758V53.5H64.4229V52.3665H64.3548C64.2042 52.7159 63.9627 53.0071 63.6303 53.2401C63.3008 53.4702 62.8903 53.5852 62.3988 53.5852C61.9783 53.5852 61.6062 53.4929 61.2823 53.3082C60.9613 53.1207 60.7085 52.8438 60.5238 52.4773C60.342 52.1108 60.2511 51.6577 60.2511 51.1179V46.9545H61.5252V50.9645C61.5252 51.4105 61.6488 51.7656 61.896 52.0298C62.1431 52.294 62.4641 52.4261 62.859 52.4261C63.0977 52.4261 63.3349 52.3665 63.5707 52.2472C63.8093 52.1278 64.0067 51.9474 64.163 51.706C64.3221 51.4645 64.4002 51.1577 64.3974 50.7855ZM68.6619 49.6136V53.5H67.3878V46.9545H68.6108V48.0199H68.6918C68.8423 47.6733 69.0781 47.3949 69.3991 47.1847C69.723 46.9744 70.1307 46.8693 70.6222 46.8693C71.0682 46.8693 71.4588 46.9631 71.794 47.1506C72.1293 47.3352 72.3892 47.6108 72.5739 47.9773C72.7585 48.3437 72.8509 48.7969 72.8509 49.3366V53.5H71.5767V49.4901C71.5767 49.0156 71.4531 48.6449 71.206 48.3778C70.9588 48.108 70.6193 47.973 70.1875 47.973C69.892 47.973 69.6293 48.0369 69.3991 48.1648C69.1719 48.2926 68.9915 48.4801 68.858 48.7273C68.7273 48.9716 68.6619 49.267 68.6619 49.6136ZM77.6151 46.9545V47.9773H74.0398V46.9545H77.6151ZM74.9986 45.3864H76.2727V51.5781C76.2727 51.8253 76.3097 52.0114 76.3835 52.1364C76.4574 52.2585 76.5526 52.3423 76.669 52.3878C76.7884 52.4304 76.9176 52.4517 77.0568 52.4517C77.1591 52.4517 77.2486 52.4446 77.3253 52.4304C77.402 52.4162 77.4616 52.4048 77.5043 52.3963L77.7344 53.4489C77.6605 53.4773 77.5554 53.5057 77.419 53.5341C77.2827 53.5653 77.1122 53.5824 76.9077 53.5852C76.5724 53.5909 76.2599 53.5312 75.9702 53.4062C75.6804 53.2812 75.446 53.0881 75.267 52.8267C75.0881 52.5653 74.9986 52.2372 74.9986 51.8423V45.3864Z" fill="#9B9B9B"/>
</svg>
