<svg width="36" height="37" viewBox="0 0 36 37" fill="none" xmlns="http://www.w3.org/2000/svg">
<path d="M0 18.5C0 8.55887 8.05887 0.5 18 0.5V0.5C27.9411 0.5 36 8.55887 36 18.5V18.5C36 28.4411 27.9411 36.5 18 36.5V36.5C8.05887 36.5 0 28.4411 0 18.5V18.5Z" fill="#3F5BD9"/>
<path d="M25.7453 19.5C26.5362 18.3662 27 16.9872 27 15.5C27 11.634 23.866 8.5 20 8.5C16.134 8.5 13 11.634 13 15.5C13 16.5736 13.2417 17.5907 13.6736 18.5" stroke="white" stroke-width="1.5" stroke-linecap="round" stroke-linejoin="round"/>
<path d="M22.9914 12.9414L22.6871 14.2207H17L17.3086 12.9414H22.9914ZM20.1329 20.5L17.1329 16.3887L17.1286 15.3047H18.6114C18.9657 15.3047 19.2614 15.238 19.4986 15.1045C19.7386 14.9678 19.92 14.7773 20.0429 14.5332C20.1686 14.2858 20.2314 13.9961 20.2314 13.6641C20.2314 13.166 20.1029 12.7656 19.8457 12.4629C19.5886 12.1602 19.1771 12.0088 18.6114 12.0088H17L17.3343 10.5H18.6114C19.3314 10.5 19.9271 10.627 20.3986 10.8809C20.8729 11.1315 21.2271 11.4863 21.4614 11.9453C21.6986 12.4043 21.8171 12.9414 21.8171 13.5566C21.8171 14.1003 21.73 14.5853 21.5557 15.0117C21.3814 15.4382 21.1071 15.7881 20.7329 16.0615C20.3586 16.335 19.8686 16.5173 19.2629 16.6084L19.2114 16.6279L21.92 20.4121V20.5H20.1329ZM23 10.5L22.6871 11.7988L18.0757 11.7793L18.3886 10.5H23Z" fill="white"/>
<path d="M9 20.5H11.3948C11.689 20.5 11.9791 20.5663 12.2422 20.6936L14.2842 21.6816C14.5472 21.8089 14.8374 21.8751 15.1315 21.8751H16.1741C17.1825 21.8751 18 22.6662 18 23.642C18 23.6814 17.973 23.7161 17.9338 23.7269L15.3929 24.4295C14.9371 24.5555 14.449 24.5116 14.025 24.3064L11.8421 23.2503M18 23L22.5928 21.5889C23.407 21.3352 24.2871 21.636 24.7971 22.3423C25.1659 22.8529 25.0157 23.5842 24.4785 23.8942L16.9629 28.2305C16.4849 28.5063 15.9209 28.5736 15.3952 28.4176L9 26.5199" stroke="white" stroke-width="1.5" stroke-linecap="round" stroke-linejoin="round"/>
</svg>
