<svg width="36" height="37" viewBox="0 0 36 37" fill="none" xmlns="http://www.w3.org/2000/svg">
<path d="M0 18.5C0 8.55887 8.05887 0.5 18 0.5V0.5C27.9411 0.5 36 8.55887 36 18.5V18.5C36 28.4411 27.9411 36.5 18 36.5V36.5C8.05887 36.5 0 28.4411 0 18.5V18.5Z" fill="#AF52DE"/>
<path d="M10 9.5V27.5M26 9.5V27.5" stroke="white" stroke-width="1.8" stroke-linecap="round" stroke-linejoin="round"/>
<path d="M15.661 23.3652C16.6709 21.4551 17.1759 20.5 18 20.5C18.8241 20.5 19.3291 21.4551 20.339 23.3652L21.0267 24.666C21.8023 26.1329 22.1901 26.8664 21.9082 27.2191C21.8324 27.3139 21.7325 27.3921 21.6163 27.4476C21.1841 27.6541 20.3908 27.2381 18.8043 26.4062C18.4524 26.2216 18.2764 26.1294 18.084 26.1129C18.0281 26.1081 17.9719 26.1081 17.916 26.1129C17.7236 26.1294 17.5476 26.2216 17.1957 26.4062C15.6092 27.2381 14.8159 27.6541 14.3837 27.4476C14.2675 27.3921 14.1676 27.3139 14.0918 27.2191C13.8099 26.8664 14.1977 26.1329 14.9733 24.666L15.661 23.3652Z" stroke="white" stroke-width="1.8"/>
<path d="M18 9.5V11.5" stroke="white" stroke-width="1.8" stroke-linecap="round" stroke-linejoin="round"/>
<path d="M18 15.5V17.5" stroke="white" stroke-width="1.8" stroke-linecap="round" stroke-linejoin="round"/>
</svg>
