<svg width="108" height="70" viewBox="0 0 108 70" fill="none" xmlns="http://www.w3.org/2000/svg">
<path d="M63.75 25.5C63.75 31.0228 59.2728 35.5 53.75 35.5C48.2271 35.5 43.75 31.0228 43.75 25.5C43.75 19.9771 48.2271 15.5 53.75 15.5C59.2728 15.5 63.75 19.9771 63.75 25.5Z" stroke="#9B9B9B" stroke-width="1.5"/>
<path d="M60.6681 23.9125C59.6991 24.3367 58.2351 24.718 56.9095 24.2168C55.0138 23.5 54.0393 23.5 53.75 23.5C53.4607 23.5 52.4862 23.5 50.5905 24.2168C49.2649 24.718 47.8009 24.3367 46.8319 23.9125M60.75 26.7548C58.6046 27.1631 55.3579 28.378 55.2738 32.5M52.2262 32.5C52.1421 28.378 48.8954 27.1631 46.75 26.7548" stroke="#9B9B9B" stroke-width="1.5" stroke-linecap="round" stroke-linejoin="round"/>
<path d="M53.758 26.5H53.749" stroke="#9B9B9B" stroke-width="2" stroke-linecap="round" stroke-linejoin="round"/>
<path d="M37.0341 53.5H34.2088V44.7727H37.1236C37.9787 44.7727 38.7131 44.9474 39.3267 45.2969C39.9403 45.6435 40.4105 46.142 40.7372 46.7926C41.0668 47.4403 41.2315 48.2173 41.2315 49.1236C41.2315 50.0327 41.0653 50.8139 40.733 51.4673C40.4034 52.1207 39.9261 52.6236 39.3011 52.9759C38.6761 53.3253 37.9205 53.5 37.0341 53.5ZM35.5256 52.3494H36.9616C37.6264 52.3494 38.179 52.2244 38.6193 51.9744C39.0597 51.7216 39.3892 51.3565 39.608 50.8793C39.8267 50.3991 39.9361 49.8139 39.9361 49.1236C39.9361 48.4389 39.8267 47.858 39.608 47.3807C39.392 46.9034 39.0696 46.5412 38.6406 46.294C38.2116 46.0469 37.679 45.9233 37.0426 45.9233H35.5256V52.3494ZM42.7667 53.5V46.9545H43.9982V47.9943H44.0664C44.1857 47.642 44.396 47.3651 44.6971 47.1634C45.0011 46.9588 45.3448 46.8565 45.7283 46.8565C45.8079 46.8565 45.9016 46.8594 46.0096 46.8651C46.1204 46.8707 46.207 46.8778 46.2695 46.8864V48.1051C46.2184 48.0909 46.1275 48.0753 45.9968 48.0582C45.8661 48.0384 45.7354 48.0284 45.6048 48.0284C45.3036 48.0284 45.0352 48.0923 44.7994 48.2202C44.5664 48.3452 44.3817 48.5199 44.2454 48.7443C44.109 48.9659 44.0408 49.2187 44.0408 49.5028V53.5H42.7667ZM47.3722 53.5V46.9545H48.6463V53.5H47.3722ZM48.0156 45.9446C47.794 45.9446 47.6037 45.8707 47.4446 45.723C47.2884 45.5724 47.2102 45.3935 47.2102 45.1861C47.2102 44.9759 47.2884 44.7969 47.4446 44.6491C47.6037 44.4986 47.794 44.4233 48.0156 44.4233C48.2372 44.4233 48.4261 44.4986 48.5824 44.6491C48.7415 44.7969 48.821 44.9759 48.821 45.1861C48.821 45.3935 48.7415 45.5724 48.5824 45.723C48.4261 45.8707 48.2372 45.9446 48.0156 45.9446ZM55.9599 46.9545L53.5863 53.5H52.2227L49.8448 46.9545H51.2127L52.8704 51.9915H52.9386L54.592 46.9545H55.9599ZM59.7557 53.6321C59.1108 53.6321 58.5554 53.4943 58.0895 53.2188C57.6264 52.9403 57.2685 52.5497 57.0156 52.0469C56.7656 51.5412 56.6406 50.9489 56.6406 50.2699C56.6406 49.5994 56.7656 49.0085 57.0156 48.4972C57.2685 47.9858 57.6207 47.5866 58.0724 47.2997C58.527 47.0128 59.0582 46.8693 59.6662 46.8693C60.0355 46.8693 60.3935 46.9304 60.7401 47.0526C61.0866 47.1747 61.3977 47.3665 61.6733 47.6278C61.9489 47.8892 62.1662 48.2287 62.3253 48.6463C62.4844 49.0611 62.5639 49.5653 62.5639 50.1591V50.6108H57.3608V49.6562H61.3153C61.3153 49.321 61.2472 49.0241 61.1108 48.7656C60.9744 48.5043 60.7827 48.2983 60.5355 48.1477C60.2912 47.9972 60.0043 47.9219 59.6747 47.9219C59.3168 47.9219 59.0043 48.0099 58.7372 48.1861C58.473 48.3594 58.2685 48.5866 58.1236 48.8679C57.9815 49.1463 57.9105 49.4489 57.9105 49.7756V50.5213C57.9105 50.9588 57.9872 51.331 58.1406 51.6378C58.2969 51.9446 58.5142 52.179 58.7926 52.3409C59.071 52.5 59.3963 52.5795 59.7685 52.5795C60.0099 52.5795 60.2301 52.5455 60.429 52.4773C60.6278 52.4062 60.7997 52.3011 60.9446 52.1619C61.0895 52.0227 61.2003 51.8509 61.277 51.6463L62.483 51.8636C62.3864 52.2187 62.2131 52.5298 61.9631 52.7969C61.7159 53.0611 61.4048 53.267 61.0298 53.4148C60.6577 53.5597 60.233 53.6321 59.7557 53.6321ZM63.9776 53.5V46.9545H65.2092V47.9943H65.2773C65.3967 47.642 65.6069 47.3651 65.908 47.1634C66.212 46.9588 66.5558 46.8565 66.9393 46.8565C67.0188 46.8565 67.1126 46.8594 67.2205 46.8651C67.3313 46.8707 67.418 46.8778 67.4805 46.8864V48.1051C67.4293 48.0909 67.3384 48.0753 67.2077 48.0582C67.0771 48.0384 66.9464 48.0284 66.8157 48.0284C66.5146 48.0284 66.2461 48.0923 66.0103 48.2202C65.7773 48.3452 65.5927 48.5199 65.4563 48.7443C65.32 48.9659 65.2518 49.2187 65.2518 49.5028V53.5H63.9776ZM73.4879 48.5526L72.3331 48.7571C72.2848 48.6094 72.2081 48.4687 72.103 48.3352C72.0007 48.2017 71.8615 48.0923 71.6854 48.0071C71.5092 47.9219 71.2891 47.8793 71.0249 47.8793C70.6641 47.8793 70.3629 47.9602 70.1214 48.1222C69.88 48.2812 69.7592 48.4872 69.7592 48.7401C69.7592 48.9588 69.8402 49.1349 70.0021 49.2685C70.1641 49.402 70.4254 49.5114 70.7862 49.5966L71.826 49.8352C72.4283 49.9744 72.8771 50.1889 73.1726 50.4787C73.468 50.7685 73.6158 51.1449 73.6158 51.608C73.6158 52 73.5021 52.3494 73.2749 52.6562C73.0504 52.9602 72.7365 53.1989 72.3331 53.3722C71.9325 53.5455 71.468 53.6321 70.9396 53.6321C70.2067 53.6321 69.6087 53.4759 69.1456 53.1634C68.6825 52.848 68.3984 52.4006 68.2933 51.821L69.5249 51.6335C69.6016 51.9545 69.7592 52.1974 69.9979 52.3622C70.2365 52.5241 70.5476 52.6051 70.9311 52.6051C71.3487 52.6051 71.6825 52.5185 71.9325 52.3452C72.1825 52.169 72.3075 51.9545 72.3075 51.7017C72.3075 51.4972 72.2308 51.3253 72.0774 51.1861C71.9268 51.0469 71.6953 50.9418 71.3828 50.8707L70.2749 50.6278C69.6641 50.4886 69.2124 50.267 68.9197 49.9631C68.63 49.6591 68.4851 49.2741 68.4851 48.8082C68.4851 48.4219 68.593 48.0838 68.8089 47.794C69.0249 47.5043 69.3232 47.2784 69.7038 47.1165C70.0845 46.9517 70.5206 46.8693 71.0121 46.8693C71.7195 46.8693 72.2763 47.0227 72.6825 47.3295C73.0888 47.6335 73.3572 48.0412 73.4879 48.5526Z" fill="#9B9B9B"/>
</svg>
