<svg width="36" height="37" viewBox="0 0 36 37" fill="none" xmlns="http://www.w3.org/2000/svg">
<path d="M0 18.5C0 8.55887 8.05887 0.5 18 0.5V0.5C27.9411 0.5 36 8.55887 36 18.5V18.5C36 28.4411 27.9411 36.5 18 36.5V36.5C8.05887 36.5 0 28.4411 0 18.5V18.5Z" fill="#008F75"/>
<path d="M24.98 13.3711L24.27 16.1855H11L11.72 13.3711H24.98ZM18.31 30L11.31 20.9551L11.3 18.5703H14.76C15.5867 18.5703 16.2767 18.4235 16.83 18.1299C17.39 17.8291 17.8133 17.4102 18.1 16.873C18.3933 16.3288 18.54 15.6914 18.54 14.9609C18.54 13.8652 18.24 12.9844 17.64 12.3184C17.04 11.6523 16.08 11.3193 14.76 11.3193H11L11.78 8H14.76C16.44 8 17.83 8.2793 18.93 8.83789C20.0367 9.38932 20.8633 10.1699 21.41 11.1797C21.9633 12.1895 22.24 13.3711 22.24 14.7246C22.24 15.9206 22.0367 16.9876 21.63 17.9258C21.2233 18.8639 20.5833 19.6338 19.71 20.2354C18.8367 20.8369 17.6933 21.238 16.28 21.4385L16.16 21.4814L22.48 29.8066V30H18.31ZM25 8L24.27 10.8574L13.51 10.8145L14.24 8H25Z" fill="white"/>
</svg>
