<svg width="108" height="70" viewBox="0 0 108 70" fill="none" xmlns="http://www.w3.org/2000/svg">
<mask id="path-1-inside-1_0_2615" fill="white">
<path d="M0 0H107.5V70H0V0Z"/>
</mask>
<path d="M0 0V4H107.5V0V-4H0V0Z" fill="black" mask="url(#path-1-inside-1_0_2615)"/>
<path d="M48.8385 18.2624L47.8385 19.043C46.3218 20.2268 45.5635 20.8187 45.1567 21.6533C44.75 22.4879 44.75 23.452 44.75 25.3803V27.4715C44.75 31.2562 44.75 33.1485 45.9216 34.3243C47.0931 35.5 48.9788 35.5 52.75 35.5H54.75C58.5212 35.5 60.4069 35.5 61.5784 34.3243C62.75 33.1485 62.75 31.2562 62.75 27.4715V25.3803C62.75 23.452 62.75 22.4879 62.3433 21.6533C61.9365 20.8187 61.1782 20.2268 59.6615 19.043L58.6615 18.2624C56.3021 16.4208 55.1224 15.5 53.75 15.5C52.3776 15.5 51.1979 16.4208 48.8385 18.2624Z" fill="black" stroke="black" stroke-width="1.5" stroke-linejoin="round"/>
<path d="M56.75 30H58.75V32M56.75 30V32H58.75M56.75 30L58.75 32" stroke="white" stroke-width="1.5" stroke-linejoin="round"/>
<path d="M37.1108 53.5V44.7727H38.6918V48.4673H42.7358V44.7727H44.321V53.5H42.7358V49.7926H38.6918V53.5H37.1108ZM48.8274 53.6278C48.1882 53.6278 47.6342 53.4872 47.1655 53.206C46.6967 52.9247 46.3331 52.5312 46.0746 52.0256C45.8189 51.5199 45.6911 50.929 45.6911 50.2528C45.6911 49.5767 45.8189 48.9844 46.0746 48.4759C46.3331 47.9673 46.6967 47.5724 47.1655 47.2912C47.6342 47.0099 48.1882 46.8693 48.8274 46.8693C49.4666 46.8693 50.0206 47.0099 50.4893 47.2912C50.9581 47.5724 51.3203 47.9673 51.576 48.4759C51.8345 48.9844 51.9638 49.5767 51.9638 50.2528C51.9638 50.929 51.8345 51.5199 51.576 52.0256C51.3203 52.5312 50.9581 52.9247 50.4893 53.206C50.0206 53.4872 49.4666 53.6278 48.8274 53.6278ZM48.8359 52.392C49.1825 52.392 49.4723 52.2969 49.7053 52.1065C49.9382 51.9134 50.1115 51.6548 50.2251 51.331C50.3416 51.0071 50.3999 50.6463 50.3999 50.2486C50.3999 49.848 50.3416 49.4858 50.2251 49.1619C50.1115 48.8352 49.9382 48.5753 49.7053 48.3821C49.4723 48.1889 49.1825 48.0923 48.8359 48.0923C48.4808 48.0923 48.1854 48.1889 47.9496 48.3821C47.7166 48.5753 47.5419 48.8352 47.4254 49.1619C47.3118 49.4858 47.255 49.848 47.255 50.2486C47.255 50.6463 47.3118 51.0071 47.4254 51.331C47.5419 51.6548 47.7166 51.9134 47.9496 52.1065C48.1854 52.2969 48.4808 52.392 48.8359 52.392ZM53.2731 53.5V46.9545H54.7475V48.0668H54.8242C54.9606 47.6918 55.1864 47.3991 55.5018 47.1889C55.8171 46.9759 56.1935 46.8693 56.631 46.8693C57.0742 46.8693 57.4478 46.9773 57.7518 47.1932C58.0586 47.4062 58.2745 47.6974 58.3995 48.0668H58.4677C58.6126 47.7031 58.8569 47.4134 59.2006 47.1974C59.5472 46.9787 59.9577 46.8693 60.4322 46.8693C61.0344 46.8693 61.5259 47.0597 61.9066 47.4403C62.2873 47.821 62.4776 48.3764 62.4776 49.1065V53.5H60.9308V49.3452C60.9308 48.9389 60.8228 48.642 60.6069 48.4545C60.391 48.2642 60.1268 48.169 59.8143 48.169C59.4421 48.169 59.1509 48.2855 58.9407 48.5185C58.7333 48.7486 58.6296 49.0483 58.6296 49.4176V53.5H57.1168V49.2812C57.1168 48.9432 57.0146 48.6733 56.81 48.4716C56.6083 48.2699 56.3441 48.169 56.0174 48.169C55.7958 48.169 55.5941 48.2259 55.4123 48.3395C55.2305 48.4503 55.0856 48.608 54.9776 48.8125C54.8697 49.0142 54.8157 49.25 54.8157 49.5199V53.5H53.2731ZM66.9403 53.6278C66.2841 53.6278 65.7173 53.4915 65.2401 53.2188C64.7656 52.9432 64.4006 52.554 64.1449 52.0511C63.8892 51.5455 63.7614 50.9503 63.7614 50.2656C63.7614 49.5923 63.8892 49.0014 64.1449 48.4929C64.4034 47.9815 64.7642 47.5838 65.2273 47.2997C65.6903 47.0128 66.2344 46.8693 66.8594 46.8693C67.2628 46.8693 67.6435 46.9347 68.0014 47.0653C68.3622 47.1932 68.6804 47.392 68.956 47.6619C69.2344 47.9318 69.4531 48.2756 69.6122 48.6932C69.7713 49.108 69.8509 49.6023 69.8509 50.1761V50.6491H64.4858V49.6094H68.3722C68.3693 49.3139 68.3054 49.0511 68.1804 48.821C68.0554 48.5881 67.8807 48.4048 67.6562 48.2713C67.4347 48.1378 67.1761 48.071 66.8807 48.071C66.5653 48.071 66.2884 48.1477 66.0497 48.3011C65.8111 48.4517 65.625 48.6506 65.4915 48.8977C65.3608 49.142 65.294 49.4105 65.2912 49.7031V50.6108C65.2912 50.9915 65.3608 51.3182 65.5 51.5909C65.6392 51.8608 65.8338 52.0682 66.0838 52.2131C66.3338 52.3551 66.6264 52.4261 66.9616 52.4261C67.1861 52.4261 67.3892 52.3949 67.571 52.3324C67.7528 52.267 67.9105 52.1719 68.044 52.0469C68.1776 51.9219 68.2784 51.767 68.3466 51.5824L69.7869 51.7443C69.696 52.125 69.5227 52.4574 69.267 52.7415C69.0142 53.0227 68.6903 53.2415 68.2955 53.3977C67.9006 53.5511 67.4489 53.6278 66.9403 53.6278Z" fill="black"/>
</svg>
