<svg width="36" height="37" viewBox="0 0 36 37" fill="none" xmlns="http://www.w3.org/2000/svg">
<path d="M0 18.5C0 8.55887 8.05887 0.5 18 0.5V0.5C27.9411 0.5 36 8.55887 36 18.5V18.5C36 28.4411 27.9411 36.5 18 36.5V36.5C8.05887 36.5 0 28.4411 0 18.5V18.5Z" fill="#122E46"/>
<path d="M19.5 26.5C19.5 26.5 20.5 26.5 21.5 28.5C21.5 28.5 24.6765 23.5 27.5 22.5" stroke="white" stroke-width="1.8" stroke-linecap="round" stroke-linejoin="round"/>
<path d="M13 22.5H17M13 17.5H21" stroke="white" stroke-width="1.8" stroke-linecap="round"/>
<path d="M12.5 10C10.9442 10.0467 10.0166 10.2198 9.37477 10.8623C8.49609 11.7418 8.49609 13.1573 8.49609 15.9884V22.4944C8.49609 25.3255 8.49609 26.741 9.37477 27.6205C10.2535 28.5 11.6677 28.5 14.4961 28.5H16.9961M21.4922 10C23.048 10.0467 23.9756 10.2198 24.6174 10.8623C25.4961 11.7418 25.4961 13.1573 25.4961 15.9884V20" stroke="white" stroke-width="1.8" stroke-linecap="round"/>
<path d="M12.4961 10.25C12.4961 9.2835 13.2796 8.5 14.2461 8.5H19.7461C20.7126 8.5 21.4961 9.2835 21.4961 10.25C21.4961 11.2165 20.7126 12 19.7461 12H14.2461C13.2796 12 12.4961 11.2165 12.4961 10.25Z" stroke="white" stroke-width="1.8" stroke-linejoin="round"/>
</svg>
