<svg width="430" height="166" viewBox="0 0 430 166" fill="none" xmlns="http://www.w3.org/2000/svg">
<g opacity="0.3">
<path opacity="0.5" d="M257.088 38.1915C256.47 38.7287 256.046 39.4834 255.92 40.3405H255.42C255.189 40.3405 255 40.1487 255 39.9141V38.6178C255 38.3833 255.189 38.1915 255.42 38.1915L257.088 38.1915ZM261.902 40.3405C261.935 40.5067 261.952 40.673 261.952 40.8479C261.952 42.3104 260.784 43.5 259.339 43.5C257.899 43.5 256.726 42.3104 256.726 40.8479C256.726 40.673 256.743 40.5067 256.777 40.3405C257.008 39.1166 258.066 38.1914 259.339 38.1914C260.612 38.1914 261.675 39.1166 261.902 40.3405ZM260.646 40.8479C260.646 40.6688 260.612 40.4939 260.545 40.3405C260.352 39.8586 259.885 39.5217 259.339 39.5217C258.793 39.5217 258.327 39.8586 258.134 40.3405C258.067 40.4939 258.033 40.6688 258.033 40.8479C258.033 41.577 258.617 42.174 259.339 42.174C260.062 42.174 260.646 41.577 260.646 40.8479ZM256.034 36.4902V23.7792C256.034 23.0727 256.598 22.5 257.294 22.5H277.374C278.07 22.5 278.634 23.0727 278.634 23.7792V36.4902C278.634 36.7246 278.445 36.9165 278.214 36.9165H256.454C256.223 36.9165 256.034 36.7246 256.034 36.4902ZM275.584 35.0551C275.584 35.2575 275.746 35.4216 275.945 35.4216H275.957C276.156 35.4216 276.318 35.2575 276.318 35.0551V24.5083C276.318 24.3059 276.156 24.1418 275.957 24.1418H275.945C275.746 24.1418 275.584 24.3059 275.584 24.5083V35.0551ZM272.189 35.0551C272.189 35.2575 272.351 35.4216 272.55 35.4216H272.561C272.761 35.4216 272.922 35.2575 272.922 35.0551V24.5083C272.922 24.3059 272.761 24.1418 272.561 24.1418H272.55C272.351 24.1418 272.189 24.3059 272.189 24.5083V35.0551ZM268.793 35.0551C268.793 35.2575 268.955 35.4216 269.154 35.4216H269.166C269.365 35.4216 269.527 35.2575 269.527 35.0551V24.5083C269.527 24.3059 269.365 24.1418 269.166 24.1418H269.154C268.955 24.1418 268.793 24.3059 268.793 24.5083V35.0551ZM265.398 35.0551C265.398 35.2575 265.56 35.4216 265.759 35.4216H265.77C265.97 35.4216 266.131 35.2575 266.131 35.0551V24.5083C266.131 24.3059 265.97 24.1418 265.77 24.1418H265.759C265.56 24.1418 265.398 24.3059 265.398 24.5083V35.0551ZM262.003 35.0551C262.003 35.2575 262.164 35.4216 262.364 35.4216H262.375C262.574 35.4216 262.736 35.2575 262.736 35.0551V24.5083C262.736 24.3059 262.574 24.1418 262.375 24.1418H262.364C262.164 24.1418 262.003 24.3059 262.003 24.5083V35.0551ZM258.607 35.0551C258.607 35.2575 258.769 35.4216 258.968 35.4216H258.98C259.179 35.4216 259.341 35.2575 259.341 35.0551V24.5083C259.341 24.3059 259.179 24.1418 258.98 24.1418H258.968C258.769 24.1418 258.607 24.3059 258.607 24.5083V35.0551ZM268.35 40.3405C268.384 40.5067 268.4 40.673 268.4 40.8479C268.4 42.3104 267.233 43.5 265.787 43.5C264.347 43.5 263.175 42.3104 263.175 40.8479C263.175 40.673 263.191 40.5067 263.225 40.3405C263.456 39.1166 264.515 38.1914 265.787 38.1914C267.06 38.1914 268.123 39.1166 268.35 40.3405ZM267.094 40.8479C267.094 40.6688 267.06 40.4939 266.997 40.3405C266.8 39.8586 266.334 39.5217 265.787 39.5217C265.241 39.5217 264.775 39.8586 264.578 40.3405C264.515 40.4939 264.481 40.6688 264.481 40.8479C264.481 41.577 265.065 42.174 265.788 42.174C266.51 42.174 267.094 41.577 267.094 40.8479ZM263.536 38.1915H261.591C262.019 38.5666 262.36 39.0485 262.566 39.5943C262.767 39.0485 263.107 38.5666 263.536 38.1915ZM292 38.6178V39.914C292 40.1486 291.811 40.3405 291.58 40.3405H288.177C287.934 38.6476 286.501 37.3386 284.766 37.3386C283.031 37.3386 281.595 38.6476 281.351 40.3405H269.207C269.081 39.4834 268.657 38.7286 268.039 38.1914H279.835V25.9965C279.835 25.5274 280.209 25.1437 280.675 25.1437H284.64C285.758 25.1437 286.8 25.7065 287.425 26.6446L289.984 30.4907C290.357 31.0535 290.559 31.7187 290.559 32.3966V38.1914H291.58C291.811 38.1915 292 38.3832 292 38.6178ZM287.74 30.5887L285.695 27.6381C285.615 27.5272 285.489 27.459 285.35 27.459H282.162C281.931 27.459 281.742 27.6508 281.742 27.8854V30.8318C281.742 31.0706 281.931 31.2582 282.162 31.2582H287.396C287.736 31.2582 287.934 30.8702 287.74 30.5887ZM287.379 40.8479C287.379 42.3104 286.207 43.5 284.766 43.5C283.321 43.5 282.153 42.3104 282.153 40.8479C282.153 39.3811 283.321 38.1915 284.766 38.1915C286.207 38.1915 287.379 39.381 287.379 40.8479ZM286.073 40.8479C286.073 40.1145 285.489 39.5218 284.766 39.5218C284.044 39.5218 283.46 40.1145 283.46 40.8479C283.46 41.577 284.044 42.174 284.766 42.174C285.489 42.174 286.073 41.577 286.073 40.8479Z" fill="#112E46"/>
<path d="M310 45L354 1M310 45L354 89M310 45H70.5M354 1L398 45M354 1H4.5M398 45L354 89M398 45L425.5 17.5M354 89L430 165M18.5 118.5H70.5V45M18.5 118.5V45M18.5 118.5L-14 151M70.5 45H18.5M18.5 45H-7M364 44.5C364 50.0228 359.523 54.5 354 54.5C348.477 54.5 344 50.0228 344 44.5C344 38.9772 348.477 34.5 354 34.5C359.523 34.5 364 38.9772 364 44.5Z" stroke="url(#paint0_linear_3_2150)" stroke-width="2"/>
</g>
<defs>
<linearGradient id="paint0_linear_3_2150" x1="318" y1="44.5" x2="113.5" y2="36.5" gradientUnits="userSpaceOnUse">
<stop stop-color="#112E46" stop-opacity="0.7"/>
<stop offset="1" stop-color="#112E46" stop-opacity="0"/>
</linearGradient>
</defs>
</svg>
