<svg width="108" height="70" viewBox="0 0 108 70" fill="none" xmlns="http://www.w3.org/2000/svg">
<path d="M47.2661 30.4999C45.8461 30.4999 45.1362 30.4999 44.695 30.0606C44.2539 29.6212 44.2539 28.9141 44.2539 27.4999V23.4999H58V18.5576C59.2548 18.6329 60.1378 18.8064 60.8902 19.2062C61.869 19.7262 62.6846 20.5054 63.2471 21.4578C64.0109 22.751 64.0832 24.4793 64.2279 27.9359C64.2668 28.8677 64.2863 29.3336 64.1042 29.6861C63.9704 29.9453 63.7635 30.16 63.5091 30.304C63.163 30.4999 62.6949 30.4999 61.7585 30.4999H61.2539M51.2539 30.4999H57.2539" stroke="#9B9B9B" stroke-width="1.5" stroke-linecap="round" stroke-linejoin="round"/>
<path d="M49.2539 32.5C50.3585 32.5 51.2539 31.6046 51.2539 30.5C51.2539 29.3954 50.3585 28.5 49.2539 28.5C48.1493 28.5 47.2539 29.3954 47.2539 30.5C47.2539 31.6046 48.1493 32.5 49.2539 32.5Z" stroke="#9B9B9B" stroke-width="1.5"/>
<path d="M59.2539 32.5C60.3585 32.5 61.2539 31.6046 61.2539 30.5C61.2539 29.3954 60.3585 28.5 59.2539 28.5C58.1493 28.5 57.2539 29.3954 57.2539 30.5C57.2539 31.6046 58.1493 32.5 59.2539 32.5Z" stroke="#9B9B9B" stroke-width="1.5"/>
<path d="M44.2461 23.501H57.6141C58.2411 23.501 58.4541 23.8682 58.9341 24.4442C59.4861 24.9842 59.8593 25.3629 60.3741 25.4402C61.0941 25.5482 63.7581 25.4942 63.7581 25.4942" stroke="#9B9B9B" stroke-width="1.5" stroke-linecap="round"/>
<path d="M31.4716 44.7727L33.9006 51.8807H33.9986L36.4276 44.7727H37.8509L34.7102 53.5H33.1889L30.0483 44.7727H31.4716ZM41.1737 53.6321C40.5288 53.6321 39.9734 53.4943 39.5075 53.2188C39.0444 52.9403 38.6864 52.5497 38.4336 52.0469C38.1836 51.5412 38.0586 50.9489 38.0586 50.2699C38.0586 49.5994 38.1836 49.0085 38.4336 48.4972C38.6864 47.9858 39.0387 47.5866 39.4904 47.2997C39.945 47.0128 40.4762 46.8693 41.0842 46.8693C41.4535 46.8693 41.8114 46.9304 42.158 47.0526C42.5046 47.1747 42.8157 47.3665 43.0913 47.6278C43.3668 47.8892 43.5842 48.2287 43.7433 48.6463C43.9023 49.0611 43.9819 49.5653 43.9819 50.1591V50.6108H38.7788V49.6562H42.7333C42.7333 49.321 42.6651 49.0241 42.5288 48.7656C42.3924 48.5043 42.2006 48.2983 41.9535 48.1477C41.7092 47.9972 41.4222 47.9219 41.0927 47.9219C40.7347 47.9219 40.4222 48.0099 40.1552 48.1861C39.891 48.3594 39.6864 48.5866 39.5415 48.8679C39.3995 49.1463 39.3285 49.4489 39.3285 49.7756V50.5213C39.3285 50.9588 39.4052 51.331 39.5586 51.6378C39.7148 51.9446 39.9322 52.179 40.2106 52.3409C40.489 52.5 40.8143 52.5795 41.1864 52.5795C41.4279 52.5795 41.6481 52.5455 41.8469 52.4773C42.0458 52.4062 42.2177 52.3011 42.3626 52.1619C42.5075 52.0227 42.6183 51.8509 42.695 51.6463L43.9009 51.8636C43.8043 52.2187 43.631 52.5298 43.381 52.7969C43.1339 53.0611 42.8228 53.267 42.4478 53.4148C42.0756 53.5597 41.6509 53.6321 41.1737 53.6321ZM46.6697 49.6136V53.5H45.3956V44.7727H46.6527V48.0199H46.7337C46.8871 47.6676 47.1214 47.3878 47.4368 47.1804C47.7521 46.973 48.1641 46.8693 48.6726 46.8693C49.1214 46.8693 49.5135 46.9616 49.8487 47.1463C50.1868 47.331 50.4482 47.6065 50.6328 47.973C50.8203 48.3366 50.9141 48.7912 50.9141 49.3366V53.5H49.6399V49.4901C49.6399 49.0099 49.5163 48.6378 49.2692 48.3736C49.022 48.1065 48.6783 47.973 48.2379 47.973C47.9368 47.973 47.6669 48.0369 47.4283 48.1648C47.1925 48.2926 47.0064 48.4801 46.87 48.7273C46.7365 48.9716 46.6697 49.267 46.6697 49.6136ZM52.6143 53.5V46.9545H53.8885V53.5H52.6143ZM53.2578 45.9446C53.0362 45.9446 52.8459 45.8707 52.6868 45.723C52.5305 45.5724 52.4524 45.3935 52.4524 45.1861C52.4524 44.9759 52.5305 44.7969 52.6868 44.6491C52.8459 44.4986 53.0362 44.4233 53.2578 44.4233C53.4794 44.4233 53.6683 44.4986 53.8246 44.6491C53.9837 44.7969 54.0632 44.9759 54.0632 45.1861C54.0632 45.3935 53.9837 45.5724 53.8246 45.723C53.6683 45.8707 53.4794 45.9446 53.2578 45.9446ZM58.3597 53.6321C57.7262 53.6321 57.1808 53.4886 56.7234 53.2017C56.2688 52.9119 55.9194 52.5128 55.6751 52.0043C55.4308 51.4957 55.3086 50.9134 55.3086 50.2571C55.3086 49.5923 55.4336 49.0057 55.6836 48.4972C55.9336 47.9858 56.2859 47.5866 56.7404 47.2997C57.195 47.0128 57.7305 46.8693 58.3469 46.8693C58.8441 46.8693 59.2873 46.9616 59.6765 47.1463C60.0657 47.3281 60.3796 47.5838 60.6183 47.9134C60.8597 48.2429 61.0032 48.6278 61.0487 49.0682H59.8086C59.7404 48.7614 59.5842 48.4972 59.3398 48.2756C59.0984 48.054 58.7745 47.9432 58.3683 47.9432C58.0131 47.9432 57.7021 48.0369 57.435 48.2244C57.1708 48.4091 56.9648 48.6733 56.8171 49.017C56.6694 49.358 56.5955 49.7614 56.5955 50.2273C56.5955 50.7045 56.668 51.1165 56.8129 51.4631C56.9577 51.8097 57.1623 52.0781 57.4265 52.2685C57.6935 52.4588 58.0075 52.554 58.3683 52.554C58.6097 52.554 58.8285 52.5099 59.0245 52.4219C59.2234 52.331 59.3896 52.2017 59.5231 52.0341C59.6594 51.8665 59.7546 51.6648 59.8086 51.429H61.0487C61.0032 51.8523 60.8654 52.2301 60.6353 52.5625C60.4052 52.8949 60.0969 53.1562 59.7106 53.3466C59.3271 53.5369 58.8768 53.6321 58.3597 53.6321ZM63.6854 44.7727V53.5H62.4112V44.7727H63.6854ZM68.2205 53.6321C67.5756 53.6321 67.0202 53.4943 66.5543 53.2188C66.0913 52.9403 65.7333 52.5497 65.4805 52.0469C65.2305 51.5412 65.1055 50.9489 65.1055 50.2699C65.1055 49.5994 65.2305 49.0085 65.4805 48.4972C65.7333 47.9858 66.0856 47.5866 66.5373 47.2997C66.9918 47.0128 67.5231 46.8693 68.131 46.8693C68.5004 46.8693 68.8583 46.9304 69.2049 47.0526C69.5515 47.1747 69.8626 47.3665 70.1381 47.6278C70.4137 47.8892 70.631 48.2287 70.7901 48.6463C70.9492 49.0611 71.0288 49.5653 71.0288 50.1591V50.6108H65.8256V49.6562H69.7802C69.7802 49.321 69.712 49.0241 69.5756 48.7656C69.4393 48.5043 69.2475 48.2983 69.0004 48.1477C68.756 47.9972 68.4691 47.9219 68.1396 47.9219C67.7816 47.9219 67.4691 48.0099 67.2021 48.1861C66.9379 48.3594 66.7333 48.5866 66.5884 48.8679C66.4464 49.1463 66.3754 49.4489 66.3754 49.7756V50.5213C66.3754 50.9588 66.4521 51.331 66.6055 51.6378C66.7617 51.9446 66.979 52.179 67.2575 52.3409C67.5359 52.5 67.8612 52.5795 68.2333 52.5795C68.4748 52.5795 68.695 52.5455 68.8938 52.4773C69.0927 52.4062 69.2646 52.3011 69.4094 52.1619C69.5543 52.0227 69.6651 51.8509 69.7418 51.6463L70.9478 51.8636C70.8512 52.2187 70.6779 52.5298 70.4279 52.7969C70.1808 53.0611 69.8697 53.267 69.4947 53.4148C69.1225 53.5597 68.6978 53.6321 68.2205 53.6321ZM77.3473 48.5526L76.1925 48.7571C76.1442 48.6094 76.0675 48.4687 75.9624 48.3352C75.8601 48.2017 75.7209 48.0923 75.5447 48.0071C75.3686 47.9219 75.1484 47.8793 74.8842 47.8793C74.5234 47.8793 74.2223 47.9602 73.9808 48.1222C73.7393 48.2812 73.6186 48.4872 73.6186 48.7401C73.6186 48.9588 73.6996 49.1349 73.8615 49.2685C74.0234 49.402 74.2848 49.5114 74.6456 49.5966L75.6854 49.8352C76.2876 49.9744 76.7365 50.1889 77.032 50.4787C77.3274 50.7685 77.4751 51.1449 77.4751 51.608C77.4751 52 77.3615 52.3494 77.1342 52.6562C76.9098 52.9602 76.5959 53.1989 76.1925 53.3722C75.7919 53.5455 75.3274 53.6321 74.799 53.6321C74.0661 53.6321 73.468 53.4759 73.005 53.1634C72.5419 52.848 72.2578 52.4006 72.1527 51.821L73.3842 51.6335C73.4609 51.9545 73.6186 52.1974 73.8572 52.3622C74.0959 52.5241 74.407 52.6051 74.7905 52.6051C75.2081 52.6051 75.5419 52.5185 75.7919 52.3452C76.0419 52.169 76.1669 51.9545 76.1669 51.7017C76.1669 51.4972 76.0902 51.3253 75.9368 51.1861C75.7862 51.0469 75.5547 50.9418 75.2422 50.8707L74.1342 50.6278C73.5234 50.4886 73.0717 50.267 72.7791 49.9631C72.4893 49.6591 72.3445 49.2741 72.3445 48.8082C72.3445 48.4219 72.4524 48.0838 72.6683 47.794C72.8842 47.5043 73.1825 47.2784 73.5632 47.1165C73.9439 46.9517 74.38 46.8693 74.8714 46.8693C75.5788 46.8693 76.1357 47.0227 76.5419 47.3295C76.9482 47.6335 77.2166 48.0412 77.3473 48.5526Z" fill="#9B9B9B"/>
</svg>
