<svg width="36" height="37" viewBox="0 0 36 37" fill="none" xmlns="http://www.w3.org/2000/svg">
<path d="M0 18.5C0 8.55887 8.05887 0.5 18 0.5V0.5C27.9411 0.5 36 8.55887 36 18.5V18.5C36 28.4411 27.9411 36.5 18 36.5V36.5C8.05887 36.5 0 28.4411 0 18.5V18.5Z" fill="#F9BA4D"/>
<path d="M25.5 24C25.5 25.3807 24.3807 26.5 23 26.5C21.6193 26.5 20.5 25.3807 20.5 24C20.5 22.6193 21.6193 21.5 23 21.5C24.3807 21.5 25.5 22.6193 25.5 24Z" stroke="white" stroke-width="1.8"/>
<path d="M15.5 24C15.5 25.3807 14.3807 26.5 13 26.5C11.6193 26.5 10.5 25.3807 10.5 24C10.5 22.6193 11.6193 21.5 13 21.5C14.3807 21.5 15.5 22.6193 15.5 24Z" stroke="white" stroke-width="1.8"/>
<path d="M20.5 24H15.5M21 22V13.5C21 12.0858 21 11.3787 20.5607 10.9393C20.1213 10.5 19.4142 10.5 18 10.5H11C9.58579 10.5 8.87868 10.5 8.43934 10.9393C8 11.3787 8 12.0858 8 13.5V21.5C8 22.4346 8 22.9019 8.20096 23.25C8.33261 23.478 8.52197 23.6674 8.75 23.799C9.09808 24 9.56538 24 10.5 24M21.5 13H23.3014C24.1311 13 24.5459 13 24.8898 13.1947C25.2336 13.3894 25.4471 13.7451 25.8739 14.4565L27.5725 17.2875C27.7849 17.6415 27.8911 17.8186 27.9456 18.0151C28 18.2116 28 18.418 28 18.831V21.5C28 22.4346 28 22.9019 27.799 23.25C27.6674 23.478 27.478 23.6674 27.25 23.799C26.9019 24 26.4346 24 25.5 24" stroke="white" stroke-width="1.8" stroke-linecap="round" stroke-linejoin="round"/>
<path d="M12.5 13.5V17.4998M16.5 13.5V17.4998" stroke="white" stroke-width="1.8" stroke-linecap="round" stroke-linejoin="round"/>
</svg>
